<svg version="1.1" id="Layer_1" xmlns="http://www.w3.org/2000/svg" xmlns:xlink="http://www.w3.org/1999/xlink" x="0px" y="0px"
	 width="100%" viewBox="0 0 496 496" enable-background="new 0 0 496 496" xml:space="preserve">
<path fill="#000000" opacity="1.000000" stroke="none" 
	d="
M276.678345,218.675934 
	C291.592072,218.684204 306.083984,218.752869 320.574615,218.649826 
	C325.312988,218.616135 328.977539,220.297119 331.644562,224.184219 
	C339.934174,236.266098 348.225952,248.346512 356.498627,260.439972 
	C357.154297,261.398438 357.746735,262.416962 358.237335,263.468781 
	C361.237000,269.899841 357.721191,277.100677 350.770813,278.522949 
	C348.510071,278.985565 346.141388,279.070831 343.821777,279.073425 
	C309.009186,279.112213 274.196564,279.120300 239.383957,279.093109 
	C236.395813,279.090790 233.367661,279.038788 230.428772,278.568359 
	C225.272339,277.742950 222.894226,274.102081 225.207962,269.553833 
	C229.466934,261.181702 232.099045,256.660492 243.288742,256.715149 
	C268.939606,256.840485 294.591431,256.771606 320.242828,256.741425 
	C322.026672,256.739349 323.889740,257.163422 326.134918,255.967484 
	C323.728821,250.836746 320.254150,246.468506 316.671722,242.224884 
	C315.121887,240.389023 312.611511,241.034042 310.497009,241.031647 
	C291.674927,241.010239 272.852661,241.089432 254.030670,241.044693 
	C248.315430,241.031113 242.993103,240.057922 240.572113,233.757507 
	C239.289841,230.420578 239.284363,227.187927 241.319595,224.212570 
	C253.068832,207.036118 264.777954,189.830750 276.710327,172.781952 
	C280.458496,167.426651 287.131378,166.485764 292.173584,169.948059 
	C296.861267,173.166901 298.195282,180.150497 294.592407,185.600998 
	C288.351257,195.042725 281.693817,204.208481 275.362732,213.592392 
	C274.270081,215.211929 270.878784,217.904419 276.678345,218.675934 
z"/>
<path fill="#000000" opacity="1.000000" stroke="none" 
	d="
M202.295349,212.331848 
	C217.487442,190.229431 232.443970,168.402817 247.476227,146.628494 
	C251.892517,140.231430 256.529694,138.429321 262.211090,140.537872 
	C268.643555,142.925171 271.163971,148.979996 267.742279,155.034012 
	C264.884644,160.090088 261.449158,164.827454 258.157135,169.628876 
	C234.819107,203.667542 211.451233,237.685730 188.095108,271.711975 
	C183.396317,278.557373 171.522690,281.857208 164.194000,278.029266 
	C160.132187,275.907623 161.278702,272.449341 163.192719,269.496124 
	C167.355530,263.073212 171.713135,256.775391 176.044403,250.462982 
	C184.706909,237.838211 193.405212,225.237991 202.295349,212.331848 
z"/>
<path fill="#000000" opacity="1.000000" stroke="none" 
	d="
M265.016022,293.174927 
	C266.660980,290.767975 264.895844,289.210663 264.175110,287.472473 
	C266.595428,285.900269 266.595428,285.900269 269.751343,285.931824 
	C271.823334,294.694489 268.255005,304.002441 272.099182,313.051422 
	C268.103973,313.195282 264.203308,313.854828 260.382111,313.975830 
	C255.935028,314.116669 253.820267,310.562439 252.960587,306.504211 
	C251.914352,301.565308 254.213028,296.528076 258.446960,294.837860 
	C260.416077,294.051788 262.626038,293.869110 265.016022,293.174927 
M263.190430,310.735107 
	C265.884827,308.785767 267.305511,299.858582 265.209656,297.511414 
	C263.698517,295.819031 261.896454,296.153717 260.362183,297.445679 
	C258.057434,299.386475 257.005768,302.057220 257.526794,304.966766 
	C258.015839,307.697632 258.736786,310.629486 263.190430,310.735107 
z"/>
<path fill="#000000" opacity="1.000000" stroke="none" 
	d="
M293.224487,302.217072 
	C292.646667,312.491791 289.008484,314.620728 275.973175,312.550537 
	C274.476868,304.283569 277.425385,295.516327 274.013123,286.831635 
	C274.866943,285.404205 276.662415,285.594391 278.508484,285.831818 
	C280.415131,288.294067 278.356476,291.482483 280.015839,293.930237 
	C289.514069,293.901276 290.905304,294.735718 293.224487,302.217072 
M288.497772,305.933105 
	C288.822449,304.072662 288.490509,302.315674 287.799408,300.570618 
	C286.910461,298.325928 285.493652,296.875702 282.924133,297.223907 
	C280.299438,297.579559 279.352570,299.353058 279.376617,301.823822 
	C279.386322,302.821442 279.367371,303.819489 279.350525,304.817169 
	C279.303162,307.618958 279.670898,310.596710 282.754395,311.297882 
	C286.022186,312.040955 287.236023,309.190826 288.497772,305.933105 
z"/>
<path fill="#000000" opacity="1.000000" stroke="none" 
	d="
M236.514618,296.421967 
	C242.317291,292.980743 246.650558,293.293549 249.126144,297.052277 
	C251.354324,300.435394 250.308609,302.687744 246.293777,303.074585 
	C245.140381,303.185730 243.964676,303.074158 242.813538,303.197968 
	C240.970840,303.396088 238.360733,302.684326 238.444199,305.801788 
	C238.519424,308.610352 240.110474,310.356659 243.022156,310.795746 
	C245.468872,311.164642 247.418213,309.648804 249.871353,309.459198 
	C248.629562,313.116486 245.434082,314.109283 242.134079,314.046570 
	C237.920471,313.966431 234.868149,311.556580 233.863937,307.388336 
	C232.941071,303.557770 233.285294,299.772797 236.514618,296.421967 
M239.613678,297.852234 
	C238.044296,300.291687 239.513947,300.724945 241.513107,300.576324 
	C242.981155,300.467163 245.210388,301.386200 245.416962,298.907074 
	C245.566574,297.111938 243.964111,296.469147 242.360138,296.554871 
	C241.596344,296.595703 240.858170,297.116119 239.613678,297.852234 
z"/>
<path fill="#000000" opacity="1.000000" stroke="none" 
	d="
M336.309570,295.242310 
	C334.968170,301.232208 329.593994,304.593872 327.164215,310.182983 
	C331.544189,312.161530 333.991486,309.705322 336.126190,306.367920 
	C338.159576,312.169464 337.488556,313.304413 332.026520,313.312378 
	C328.462463,313.317596 324.799744,313.999603 320.740356,312.417542 
	C323.074432,306.899109 328.025391,303.502594 330.409576,298.123657 
	C326.354645,295.716003 324.471405,298.453766 322.845032,302.102631 
	C320.942474,295.593628 321.447479,294.697235 326.601166,294.640289 
	C329.745209,294.605499 332.925751,294.116211 336.309570,295.242310 
z"/>
<path fill="#000000" opacity="1.000000" stroke="none" 
	d="
M295.962189,295.511169 
	C299.648346,293.547821 303.506317,295.639587 307.102509,294.036591 
	C308.376251,293.468811 309.996338,294.897675 309.814758,296.734802 
	C309.644318,298.459381 308.313477,298.824097 306.862762,298.299530 
	C302.773163,296.820618 301.782318,299.648773 301.468170,302.522491 
	C301.100250,305.887634 300.670990,309.437317 303.348236,312.507050 
	C300.727051,314.012329 298.420227,313.149963 295.911285,313.130981 
	C298.241882,306.949036 298.683289,301.318481 295.962189,295.511169 
z"/>
<path fill="#000000" opacity="1.000000" stroke="none" 
	d="
M312.953613,304.883759 
	C312.916077,301.516357 313.329193,298.519653 311.362732,296.094574 
	C312.984406,294.485596 314.609589,294.511505 316.604095,294.732605 
	C318.684204,300.465790 315.611206,306.894104 318.837067,312.480957 
	C316.626434,313.854980 314.527222,313.372498 312.179810,313.008667 
	C312.442505,310.415314 312.700562,307.867706 312.953613,304.883759 
z"/>
</svg>