<svg version="1.1" id="Layer_1" xmlns="http://www.w3.org/2000/svg" xmlns:xlink="http://www.w3.org/1999/xlink" x="0px" y="0px"
	 width="100%" viewBox="0 0 500 500" enable-background="new 0 0 500 500" xml:space="preserve">
<path fill="#000000" opacity="1.000000" stroke="none" 
	d="
M230.000000,501.000000 
	C153.333359,501.000000 77.166702,501.000000 1.000041,501.000000 
	C1.000027,334.333405 1.000027,167.666779 1.000014,1.000130 
	C167.666565,1.000087 334.333130,1.000087 500.999756,1.000043 
	C500.999847,167.666519 500.999847,334.333038 500.999939,500.999786 
	C410.833344,501.000000 320.666656,501.000000 230.000000,501.000000 
M273.560486,215.757462 
	C273.772308,215.160492 273.984131,214.563522 274.785522,213.669205 
	C281.522217,204.072403 288.376068,194.554825 294.943237,184.843384 
	C297.959320,180.383270 296.605774,174.488876 292.315674,170.919144 
	C288.689789,167.902130 283.111084,168.306320 278.311523,172.020096 
	C275.517487,175.663010 272.723450,179.305923 269.977661,182.998688 
	C269.977661,182.998688 269.939270,182.949493 269.287933,183.191803 
	C260.063812,196.741104 250.755508,210.234161 241.649948,223.862671 
	C236.873840,231.011169 240.481125,239.109116 249.355515,240.818634 
	C271.590332,240.844818 293.825134,240.871002 316.595032,241.244415 
	C317.388245,242.173798 318.181458,243.103180 318.999359,243.996918 
	C318.999359,243.996918 318.961121,244.017975 318.959198,244.738617 
	C321.401855,247.996826 323.844513,251.255035 326.291656,254.666809 
	C326.291656,254.666809 326.444946,254.677048 326.670715,255.076035 
	C326.842590,255.323639 326.998138,255.581100 326.760834,256.669281 
	C325.115967,256.779327 323.471130,256.984070 321.826202,256.985321 
	C295.066956,257.005646 268.307648,256.978302 241.548615,257.055573 
	C239.955994,257.060150 238.365646,257.856720 236.068314,258.192596 
	C230.055252,259.014252 228.140640,264.439301 225.400482,268.461029 
	C222.790955,272.291016 225.593597,277.134796 230.166672,278.657074 
	C230.645798,278.771515 231.124878,278.985870 231.604065,278.986115 
	C270.703064,279.006714 309.802094,279.021118 348.901031,278.964996 
	C350.068878,278.963318 351.235687,278.209290 353.055328,277.926147 
	C360.040558,273.087128 360.904694,268.026398 356.402008,261.154358 
	C350.101471,251.538483 343.609772,242.030396 336.781067,232.785507 
	C333.416687,228.230713 329.112335,224.370209 324.892792,219.398666 
	C323.768036,219.314560 322.643280,219.230453 321.443329,219.138824 
	C321.443329,219.138824 321.436279,219.214081 320.965820,218.383759 
	C306.966248,218.240463 292.966705,218.085007 278.966766,218.006866 
	C278.499451,218.004257 278.027710,218.783905 277.548676,219.119797 
	C277.548676,219.119797 277.469604,219.129593 276.594788,219.024414 
	C274.351227,219.244247 272.566864,218.929642 272.979095,215.985016 
	C272.979095,215.985016 272.987885,216.054214 273.560486,215.757462 
M255.753738,141.071701 
	C253.148239,142.999420 249.826813,144.422211 248.053391,146.936768 
	C236.498856,163.320053 225.302719,179.955704 213.942215,196.476395 
	C208.283707,204.705109 202.502914,212.849609 196.816986,221.059616 
	C186.042389,236.617157 175.182465,252.118271 164.661285,267.845703 
	C163.084793,270.202301 162.185562,273.905670 162.852219,276.503845 
	C163.201767,277.866058 167.584671,278.452026 170.228668,278.888031 
	C172.494446,279.261658 174.881958,278.822723 177.208145,278.920685 
	C181.261398,279.091461 184.163177,277.134918 186.381882,274.032349 
	C189.167297,270.137238 191.808273,266.138794 194.509155,262.183289 
	C203.909546,248.416168 213.279297,234.628052 222.715469,220.885529 
	C237.251846,199.715210 251.801697,178.553955 266.424713,157.443481 
	C269.111694,153.564453 270.295685,149.540833 267.776520,145.381760 
	C265.272797,141.248199 261.187378,140.124680 255.753738,141.071701 
M280.460785,313.545166 
	C289.108704,314.043549 293.158936,311.243286 292.807861,304.278595 
	C292.669403,301.531250 291.614532,297.661438 289.654022,296.458221 
	C286.953033,294.800537 282.997955,295.186218 279.451355,294.678131 
	C278.587402,285.241211 278.587402,285.241211 275.132202,287.677399 
	C275.453064,289.809906 275.940796,291.707611 275.986420,293.615936 
	C276.105774,298.603119 276.160980,303.599487 275.985901,308.583191 
	C275.882721,311.519897 276.810303,313.344574 280.460785,313.545166 
M266.243622,289.387848 
	C268.307159,294.189941 265.222534,294.738495 261.670807,294.967529 
	C256.420502,295.306061 252.492859,299.379364 253.384232,304.699463 
	C254.665787,312.348175 254.856674,314.015289 262.784668,313.274780 
	C265.623627,313.009613 268.477631,312.905762 270.403992,312.785706 
	C270.403992,303.826233 270.403992,295.158600 270.403992,285.792603 
	C267.844818,286.393311 266.277557,286.761200 264.710266,287.129089 
	C264.990143,287.768555 265.269989,288.408051 266.243622,289.387848 
M244.281097,302.710938 
	C246.114456,302.189423 247.947815,301.667877 249.781174,301.146362 
	C248.617264,299.145599 247.927139,296.313202 246.187881,295.322357 
	C242.870605,293.432404 237.117798,295.390167 235.535583,298.117065 
	C233.038086,302.421478 233.449387,309.227386 236.497177,311.896942 
	C240.262436,315.194916 244.155762,313.649872 248.219849,312.121704 
	C243.469254,310.778900 236.857147,311.859375 238.529800,303.463165 
	C240.307938,303.121857 241.911285,302.814087 244.281097,302.710938 
M331.016266,304.479370 
	C332.856079,301.735474 334.695892,298.991577 337.228394,295.214569 
	C332.275360,295.214569 328.802612,294.949127 325.390839,295.291443 
	C322.170654,295.614563 321.562714,297.499451 323.319031,301.618835 
	C324.394348,295.529633 328.244537,296.951691 332.700073,297.220215 
	C329.175568,301.701843 326.192261,305.381958 323.369019,309.181030 
	C322.805206,309.939758 322.334045,311.463013 322.714386,312.098450 
	C323.899719,314.078644 335.615143,312.973236 336.701996,310.876617 
	C336.838806,310.612610 336.372589,310.035980 336.130096,309.475464 
	C332.949219,310.375153 329.850006,311.251740 326.750793,312.128326 
	C326.581909,311.716003 326.413025,311.303650 326.244171,310.891327 
	C327.660583,308.919708 329.077026,306.948090 331.016266,304.479370 
M301.957367,307.588135 
	C302.068573,304.850067 302.566101,302.050354 302.142578,299.397644 
	C301.897949,297.865356 300.167328,296.570282 299.105499,295.168457 
	C298.739532,296.465271 298.096558,297.753906 298.057892,299.060425 
	C297.926208,303.511261 298.007538,307.968414 298.007538,312.588013 
	C298.703827,312.588013 300.259399,312.588013 301.971008,312.588013 
	C301.971008,310.975769 301.971008,309.670746 301.957367,307.588135 
M316.959412,303.474823 
	C316.838562,300.780579 316.717712,298.086334 316.576324,294.934204 
	C314.373444,295.613464 313.057465,296.019257 312.223846,296.276306 
	C315.381104,301.641418 313.864380,307.106995 313.329346,312.711731 
	C314.640533,312.771851 315.919250,312.830475 316.966766,312.878510 
	C316.966766,309.917511 316.966766,307.153290 316.959412,303.474823 
z"/>
<path fill="#F63535" opacity="1.000000" stroke="none" 
	d="
M229.884811,277.774628 
	C225.593597,277.134796 222.790955,272.291016 225.400482,268.461029 
	C228.140640,264.439301 230.055252,259.014252 236.912140,258.213074 
	C260.220428,258.178314 282.685059,258.154144 305.149292,258.050568 
	C312.797058,258.015320 320.443848,257.780212 328.275177,257.590515 
	C327.787811,256.588776 327.116394,255.632919 326.444946,254.677048 
	C326.444946,254.677048 326.291656,254.666809 326.371887,254.224030 
	C325.254974,249.529495 323.587585,245.638535 318.961121,244.017975 
	C318.961121,244.017975 318.999359,243.996918 319.007996,243.650146 
	C318.033142,242.202667 317.049683,241.101974 315.827820,239.979187 
	C315.589386,239.957077 315.128845,239.825806 314.841766,239.612518 
	C313.292969,239.068909 312.028107,238.443207 310.770050,238.456619 
	C303.123566,238.538025 295.479309,238.870850 287.833038,238.918930 
	C276.017181,238.993240 264.200195,238.867523 252.383957,238.906586 
	C247.692154,238.922104 243.754883,236.811951 242.595230,232.654053 
	C241.807312,229.828995 242.871552,225.726868 244.542496,223.113266 
	C250.529297,213.748978 257.287415,204.881256 263.418732,195.604248 
	C266.019867,191.668610 267.790924,187.184387 269.939270,182.949493 
	C269.939270,182.949493 269.977661,182.998688 270.299744,182.937271 
	C273.420624,179.211441 276.219391,175.547028 279.018188,171.882629 
	C283.111084,168.306320 288.689789,167.902130 292.315674,170.919144 
	C296.605774,174.488876 297.959320,180.383270 294.943237,184.843384 
	C288.376068,194.554825 281.522217,204.072403 274.251404,214.011322 
	C273.474182,214.920364 273.231049,215.487289 272.987885,216.054214 
	C272.987885,216.054214 272.979095,215.985016 272.684692,216.083435 
	C272.125946,217.140121 271.861633,218.098389 271.597290,219.056641 
	C273.554718,219.080948 275.512177,219.105270 277.469604,219.129593 
	C277.469604,219.129593 277.548676,219.119797 278.028290,219.250275 
	C281.600281,219.397583 284.692688,219.414444 287.950043,219.545883 
	C288.485443,219.576233 288.855835,219.492004 289.680420,219.412842 
	C300.568451,219.349976 311.002380,219.282028 321.436279,219.214081 
	C321.436279,219.214081 321.443329,219.138824 321.801575,219.375671 
	C323.184326,219.806854 324.208801,220.001190 325.233307,220.195526 
	C329.112335,224.370209 333.416687,228.230713 336.781067,232.785507 
	C343.609772,242.030396 350.101471,251.538483 356.402008,261.154358 
	C360.904694,268.026398 360.040558,273.087128 352.224243,277.866577 
	C310.890381,277.796204 270.387604,277.785431 229.884811,277.774628 
z"/>
<path fill="#20405E" opacity="1.000000" stroke="none" 
	d="
M256.137665,141.048187 
	C261.187378,140.124680 265.272797,141.248199 267.776520,145.381760 
	C270.295685,149.540833 269.111694,153.564453 266.424713,157.443481 
	C251.801697,178.553955 237.251846,199.715210 222.715469,220.885529 
	C213.279297,234.628052 203.909546,248.416168 194.509155,262.183289 
	C191.808273,266.138794 189.167297,270.137238 186.381882,274.032349 
	C184.163177,277.134918 181.261398,279.091461 177.208145,278.920685 
	C174.881958,278.822723 172.494446,279.261658 170.228668,278.888031 
	C167.584671,278.452026 163.201767,277.866058 162.852219,276.503845 
	C162.185562,273.905670 163.084793,270.202301 164.661285,267.845703 
	C175.182465,252.118271 186.042389,236.617157 196.816986,221.059616 
	C202.502914,212.849609 208.283707,204.705109 213.942215,196.476395 
	C225.302719,179.955704 236.498856,163.320053 248.053391,146.936768 
	C249.826813,144.422211 253.148239,142.999420 256.137665,141.048187 
z"/>
<path fill="#CE4B4B" opacity="1.000000" stroke="none" 
	d="
M269.613586,183.070648 
	C267.790924,187.184387 266.019867,191.668610 263.418732,195.604248 
	C257.287415,204.881256 250.529297,213.748978 244.542496,223.113266 
	C242.871552,225.726868 241.807312,229.828995 242.595230,232.654053 
	C243.754883,236.811951 247.692154,238.922104 252.383957,238.906586 
	C264.200195,238.867523 276.017181,238.993240 287.833038,238.918930 
	C295.479309,238.870850 303.123566,238.538025 310.770050,238.456619 
	C312.028107,238.443207 313.292969,239.068909 314.363403,239.677002 
	C292.439941,239.978256 270.707764,240.001785 248.975571,240.025299 
	C240.481125,239.109116 236.873840,231.011169 241.649948,223.862671 
	C250.755508,210.234161 260.063812,196.741104 269.613586,183.070648 
z"/>
<path fill="#2D4356" opacity="1.000000" stroke="none" 
	d="
M280.140411,313.689331 
	C276.810303,313.344574 275.882721,311.519897 275.985901,308.583191 
	C276.160980,303.599487 276.105774,298.603119 275.986420,293.615936 
	C275.940796,291.707611 275.453064,289.809906 275.132202,287.677399 
	C278.587402,285.241211 278.587402,285.241211 279.451355,294.678131 
	C282.997955,295.186218 286.953033,294.800537 289.654022,296.458221 
	C291.614532,297.661438 292.669403,301.531250 292.807861,304.278595 
	C293.158936,311.243286 289.108704,314.043549 280.140411,313.689331 
M288.987732,304.488342 
	C288.640930,303.063080 288.752899,301.093262 287.847778,300.330811 
	C286.183563,298.928955 283.371552,296.917206 282.005249,297.485504 
	C276.886414,299.614380 279.858459,304.570892 279.543762,308.272339 
	C279.453552,309.333282 282.212250,311.227814 283.925140,311.629547 
	C284.958099,311.871765 286.729614,310.171265 287.725952,308.974609 
	C288.498535,308.046661 288.584351,306.546936 288.987732,304.488342 
z"/>
<path fill="#2D4356" opacity="1.000000" stroke="none" 
	d="
M265.896729,289.217682 
	C265.269989,288.408051 264.990143,287.768555 264.710266,287.129089 
	C266.277557,286.761200 267.844818,286.393311 270.403992,285.792603 
	C270.403992,295.158600 270.403992,303.826233 270.403992,312.785706 
	C268.477631,312.905762 265.623627,313.009613 262.784668,313.274780 
	C254.856674,314.015289 254.665787,312.348175 253.384232,304.699463 
	C252.492859,299.379364 256.420502,295.306061 261.670807,294.967529 
	C265.222534,294.738495 268.307159,294.189941 265.896729,289.217682 
M266.602875,298.465698 
	C263.294220,295.366089 260.393524,295.313995 258.806793,299.160248 
	C257.668030,301.920624 257.865906,305.471344 258.331207,308.538483 
	C258.520996,309.789642 261.428345,311.854095 262.335114,311.513580 
	C264.173553,310.823151 266.285248,308.984741 266.828522,307.181091 
	C267.558197,304.758728 266.910339,301.921509 266.602875,298.465698 
z"/>
<path fill="#2D4356" opacity="1.000000" stroke="none" 
	d="
M243.897873,302.608643 
	C241.911285,302.814087 240.307938,303.121857 238.529800,303.463165 
	C236.857147,311.859375 243.469254,310.778900 248.219849,312.121704 
	C244.155762,313.649872 240.262436,315.194916 236.497177,311.896942 
	C233.449387,309.227386 233.038086,302.421478 235.535583,298.117065 
	C237.117798,295.390167 242.870605,293.432404 246.187881,295.322357 
	C247.927139,296.313202 248.617264,299.145599 249.781174,301.146362 
	C247.947815,301.667877 246.114456,302.189423 243.897873,302.608643 
M244.954910,297.419006 
	C241.036102,294.403503 239.899750,297.413971 237.888840,300.946381 
	C240.751602,300.946381 242.820038,301.065491 244.842682,300.815033 
	C245.138245,300.778412 245.215668,298.980225 244.954910,297.419006 
z"/>
<path fill="#FFB2B4" opacity="1.000000" stroke="none" 
	d="
M230.025742,278.215851 
	C270.387604,277.785431 310.890381,277.796204 351.898071,277.806519 
	C351.235687,278.209290 350.068878,278.963318 348.901031,278.964996 
	C309.802094,279.021118 270.703064,279.006714 231.604065,278.986115 
	C231.124878,278.985870 230.645798,278.771515 230.025742,278.215851 
z"/>
<path fill="#2D4356" opacity="1.000000" stroke="none" 
	d="
M330.754883,304.727905 
	C329.077026,306.948090 327.660583,308.919708 326.244171,310.891327 
	C326.413025,311.303650 326.581909,311.716003 326.750793,312.128326 
	C329.850006,311.251740 332.949219,310.375153 336.130096,309.475464 
	C336.372589,310.035980 336.838806,310.612610 336.701996,310.876617 
	C335.615143,312.973236 323.899719,314.078644 322.714386,312.098450 
	C322.334045,311.463013 322.805206,309.939758 323.369019,309.181030 
	C326.192261,305.381958 329.175568,301.701843 332.700073,297.220215 
	C328.244537,296.951691 324.394348,295.529633 323.319031,301.618835 
	C321.562714,297.499451 322.170654,295.614563 325.390839,295.291443 
	C328.802612,294.949127 332.275360,295.214569 337.228394,295.214569 
	C334.695892,298.991577 332.856079,301.735474 330.754883,304.727905 
z"/>
<path fill="#FB9492" opacity="1.000000" stroke="none" 
	d="
M328.091095,257.636414 
	C320.443848,257.780212 312.797058,258.015320 305.149292,258.050568 
	C282.685059,258.154144 260.220428,258.178314 237.265106,258.259155 
	C238.365646,257.856720 239.955994,257.060150 241.548615,257.055573 
	C268.307648,256.978302 295.066956,257.005646 321.826202,256.985321 
	C323.471130,256.984070 325.115967,256.779327 327.167206,256.414429 
	C327.746094,256.651825 327.918610,257.144135 328.091095,257.636414 
z"/>
<path fill="#2D4356" opacity="1.000000" stroke="none" 
	d="
M301.964172,307.976929 
	C301.971008,309.670746 301.971008,310.975769 301.971008,312.588013 
	C300.259399,312.588013 298.703827,312.588013 298.007538,312.588013 
	C298.007538,307.968414 297.926208,303.511261 298.057892,299.060425 
	C298.096558,297.753906 298.739532,296.465271 299.105499,295.168457 
	C300.167328,296.570282 301.897949,297.865356 302.142578,299.397644 
	C302.566101,302.050354 302.068573,304.850067 301.964172,307.976929 
z"/>
<path fill="#FFB2B4" opacity="1.000000" stroke="none" 
	d="
M249.165543,240.421967 
	C270.707764,240.001785 292.439941,239.978256 314.650482,239.890274 
	C315.128845,239.825806 315.589386,239.957077 315.862946,240.203278 
	C316.136505,240.449463 316.059967,240.897171 316.059967,240.897186 
	C293.825134,240.871002 271.590332,240.844818 249.165543,240.421967 
z"/>
<path fill="#2D4356" opacity="1.000000" stroke="none" 
	d="
M316.963074,303.931946 
	C316.966766,307.153290 316.966766,309.917511 316.966766,312.878510 
	C315.919250,312.830475 314.640533,312.771851 313.329346,312.711731 
	C313.864380,307.106995 315.381104,301.641418 312.223846,296.276306 
	C313.057465,296.019257 314.373444,295.613464 316.576324,294.934204 
	C316.717712,298.086334 316.838562,300.780579 316.963074,303.931946 
z"/>
<path fill="#FFB2B4" opacity="1.000000" stroke="none" 
	d="
M287.785065,219.431305 
	C284.692688,219.414444 281.600281,219.397583 278.032959,219.289825 
	C278.027710,218.783905 278.499451,218.004257 278.966766,218.006866 
	C292.966705,218.085007 306.966248,218.240463 321.201050,218.798920 
	C311.002380,219.282028 300.568451,219.349976 289.318787,219.381378 
	C288.263702,219.373627 288.024384,219.402451 287.785065,219.431305 
z"/>
<path fill="#CE4B4B" opacity="1.000000" stroke="none" 
	d="
M278.664856,171.951355 
	C276.219391,175.547028 273.420624,179.211441 270.275635,182.912338 
	C272.723450,179.305923 275.517487,175.663010 278.664856,171.951355 
z"/>
<path fill="#CE4B4B" opacity="1.000000" stroke="none" 
	d="
M318.960144,244.378296 
	C323.587585,245.638535 325.254974,249.529495 326.369659,254.147232 
	C323.844513,251.255035 321.401855,247.996826 318.960144,244.378296 
z"/>
<path fill="#E47071" opacity="1.000000" stroke="none" 
	d="
M277.032196,219.076996 
	C275.512177,219.105270 273.554718,219.080948 271.597290,219.056641 
	C271.861633,218.098389 272.125946,217.140121 272.719360,216.079712 
	C272.566864,218.929642 274.351227,219.244247 277.032196,219.076996 
z"/>
<path fill="#CE4B4B" opacity="1.000000" stroke="none" 
	d="
M316.327515,241.070801 
	C316.059967,240.897171 316.136505,240.449463 316.101379,240.225372 
	C317.049683,241.101974 318.033142,242.202667 318.995636,243.667953 
	C318.181458,243.103180 317.388245,242.173798 316.327515,241.070801 
z"/>
<path fill="#CE4B4B" opacity="1.000000" stroke="none" 
	d="
M328.275177,257.590515 
	C327.918610,257.144135 327.746094,256.651825 327.355499,256.003967 
	C326.998138,255.581100 326.842590,255.323639 326.557831,254.876541 
	C327.116394,255.632919 327.787811,256.588776 328.275177,257.590515 
z"/>
<path fill="#E47071" opacity="1.000000" stroke="none" 
	d="
M325.063049,219.797089 
	C324.208801,220.001190 323.184326,219.806854 321.839172,219.379425 
	C322.643280,219.230453 323.768036,219.314560 325.063049,219.797089 
z"/>
<path fill="#E47071" opacity="1.000000" stroke="none" 
	d="
M273.274170,215.905838 
	C273.231049,215.487289 273.474182,214.920364 273.956635,214.160004 
	C273.984131,214.563522 273.772308,215.160492 273.274170,215.905838 
z"/>
<path fill="#E47071" opacity="1.000000" stroke="none" 
	d="
M287.950043,219.545868 
	C288.024384,219.402451 288.263702,219.373627 288.864624,219.376297 
	C288.855835,219.492004 288.485443,219.576233 287.950043,219.545868 
z"/>
<path fill="#000000" opacity="1.000000" stroke="none" 
	d="
M288.981567,304.894836 
	C288.584351,306.546936 288.498535,308.046661 287.725952,308.974609 
	C286.729614,310.171265 284.958099,311.871765 283.925140,311.629547 
	C282.212250,311.227814 279.453552,309.333282 279.543762,308.272339 
	C279.858459,304.570892 276.886414,299.614380 282.005249,297.485504 
	C283.371552,296.917206 286.183563,298.928955 287.847778,300.330811 
	C288.752899,301.093262 288.640930,303.063080 288.981567,304.894836 
z"/>
<path fill="#000000" opacity="1.000000" stroke="none" 
	d="
M266.728333,298.864014 
	C266.910339,301.921509 267.558197,304.758728 266.828522,307.181091 
	C266.285248,308.984741 264.173553,310.823151 262.335114,311.513580 
	C261.428345,311.854095 258.520996,309.789642 258.331207,308.538483 
	C257.865906,305.471344 257.668030,301.920624 258.806793,299.160248 
	C260.393524,295.313995 263.294220,295.366089 266.728333,298.864014 
z"/>
<path fill="#000000" opacity="1.000000" stroke="none" 
	d="
M245.174469,297.708069 
	C245.215668,298.980225 245.138245,300.778412 244.842682,300.815033 
	C242.820038,301.065491 240.751602,300.946381 237.888840,300.946381 
	C239.899750,297.413971 241.036102,294.403503 245.174469,297.708069 
z"/>
</svg>