<svg version="1.1" id="Layer_1" xmlns="http://www.w3.org/2000/svg" xmlns:xlink="http://www.w3.org/1999/xlink" x="0px" y="0px"
	 width="100%" viewBox="0 0 500 500" enable-background="new 0 0 500 500" xml:space="preserve">
<path fill="#000000" opacity="1.000000" stroke="none" 
	d="
M234.000000,501.000000 
	C156.000015,501.000000 78.500038,501.000000 1.000041,501.000000 
	C1.000028,334.333405 1.000028,167.666779 1.000014,1.000131 
	C167.666565,1.000087 334.333130,1.000087 500.999756,1.000044 
	C500.999847,167.666519 500.999847,334.333038 500.999939,500.999786 
	C412.166656,501.000000 323.333344,501.000000 234.000000,501.000000 
M247.166931,240.675873 
	C248.813858,240.783112 250.460297,240.975372 252.107788,240.984741 
	C273.424438,241.106003 294.741241,241.201248 316.325378,241.895386 
	C319.573761,246.513397 322.822144,251.131393 325.294098,256.184113 
	C323.556610,256.455811 321.820099,256.957184 320.081451,256.964874 
	C292.327911,257.087952 264.574097,257.147949 236.187698,257.434296 
	C230.606110,259.560150 227.355438,264.079651 225.101028,269.174316 
	C223.665207,272.419037 222.675873,276.358276 228.212479,278.735352 
	C228.696640,278.829956 229.180771,279.007263 229.664948,279.007385 
	C269.373993,279.016205 309.083069,279.020691 348.792053,278.960449 
	C349.947235,278.958710 351.101379,278.262970 352.964142,277.956299 
	C359.051788,274.818329 361.281830,268.588562 357.811920,263.402252 
	C349.378021,250.796524 340.886841,238.224091 332.129089,225.843155 
	C329.552155,222.200180 326.475739,218.477386 320.640686,218.187408 
	C304.756805,218.109085 288.872955,218.030762 272.995026,217.238205 
	C280.029633,206.935593 287.093658,196.652939 294.087341,186.322617 
	C298.027283,180.502930 297.768951,176.388367 293.763428,172.269821 
	C287.210724,165.532303 279.429504,168.158676 274.070496,175.788971 
	C270.256622,181.219299 266.836517,186.924515 263.097809,192.409668 
	C255.688858,203.279541 248.040359,213.988770 240.772263,224.950974 
	C237.024994,230.602875 240.060638,237.668213 247.166931,240.675873 
M268.989685,150.502274 
	C269.024567,145.170197 265.843170,142.690643 261.242920,140.820068 
	C256.671722,138.961288 253.575165,140.488022 250.730652,143.783081 
	C249.327484,145.408524 247.802353,146.955627 246.592407,148.716797 
	C231.739441,170.336472 216.951050,192.000473 202.112396,213.630020 
	C189.233994,232.402206 176.262497,251.110764 163.444351,269.923920 
	C160.054367,274.899414 162.040543,278.788879 167.967468,278.934265 
	C172.568390,279.047119 177.196259,278.831787 181.779373,278.408020 
	C183.069580,278.288727 184.651337,277.195129 185.406311,276.079437 
	C190.596268,268.409607 195.474701,260.528259 200.694916,252.879822 
	C210.400558,238.659561 220.336914,224.596863 230.055450,210.385269 
	C241.388535,193.812698 252.626816,177.174850 263.816742,160.505249 
	C265.769806,157.595795 267.280914,154.389664 268.989685,150.502274 
M267.068512,300.407532 
	C263.122986,303.694122 259.393494,305.036316 254.942215,300.737488 
	C253.543976,299.387146 250.338913,299.105255 248.178314,299.506195 
	C242.953506,300.475830 239.301971,304.270325 239.303299,309.314667 
	C239.304291,313.127411 240.961533,317.892548 243.593002,320.519684 
	C247.184357,324.105133 252.417801,324.179169 256.845062,320.628235 
	C259.200378,318.739105 261.350006,318.900787 263.938934,320.336426 
	C266.139923,321.556976 268.704620,322.794495 271.121948,322.821747 
	C277.513611,322.893860 284.113251,321.195740 290.253876,322.298096 
	C296.767609,323.467438 301.943054,321.830841 307.100525,318.877350 
	C311.927673,323.169617 317.204346,323.284119 320.552094,319.551147 
	C319.301544,315.574677 315.782990,311.556671 319.948578,307.982849 
	C321.381104,306.753845 326.892548,307.358459 327.275452,308.366150 
	C328.498230,311.583954 328.188416,315.384094 328.470428,318.959381 
	C327.886871,319.328430 327.303284,319.697479 326.719696,320.066528 
	C328.697083,320.707397 330.659943,321.842621 332.654388,321.901093 
	C340.146057,322.120789 347.648041,322.009613 355.146057,321.981750 
	C359.775085,321.964569 361.300476,319.636749 358.988464,315.546997 
	C357.088837,312.186768 356.315247,309.307983 358.483337,305.625977 
	C359.152435,304.489624 357.489624,300.318665 356.757294,300.282043 
	C351.013123,299.994720 345.235626,300.374847 338.453644,300.579895 
	C338.394379,299.990723 338.577362,297.847900 337.893005,296.031952 
	C337.079987,293.874695 335.790039,290.577484 334.232086,290.282715 
	C330.453278,289.567688 330.021454,293.174255 330.090729,295.916382 
	C330.178131,299.376312 328.620026,300.030060 325.558411,300.076630 
	C319.990021,300.161316 314.428436,300.950500 308.864044,300.950012 
	C304.675079,300.949646 300.472626,300.265686 296.311859,299.646484 
	C295.691437,299.554138 294.893372,298.182587 294.810974,297.340790 
	C294.183655,290.932251 290.355255,289.857086 284.874084,290.925476 
	C283.737640,291.147003 282.413605,290.311584 281.159393,290.040375 
	C276.336914,288.997681 273.022919,291.493439 271.847076,296.122833 
	C271.454102,297.670074 269.178619,298.739166 267.068512,300.407532 
z"/>
<path fill="#F93535" opacity="1.000000" stroke="none" 
	d="
M321.075073,218.949921 
	C326.475739,218.477386 329.552155,222.200180 332.129089,225.843155 
	C340.886841,238.224091 349.378021,250.796524 357.811920,263.402252 
	C361.281830,268.588562 359.051788,274.818329 352.119446,277.910217 
	C310.139038,277.872742 269.003357,277.881378 227.867661,277.890015 
	C222.675873,276.358276 223.665207,272.419037 225.101028,269.174316 
	C227.355438,264.079651 230.606110,259.560150 236.823608,257.625244 
	C266.648346,257.880615 295.837158,257.948792 325.026001,257.989441 
	C325.818573,257.990540 326.611542,257.694214 327.404327,257.536560 
	C326.959717,256.940857 326.515106,256.345123 326.070526,255.749405 
	C322.822144,251.131393 319.573761,246.513397 316.034882,241.174515 
	C313.783386,240.289490 311.822815,239.988388 309.861328,239.982269 
	C288.812561,239.916534 267.763672,239.897369 246.714828,239.865448 
	C240.060638,237.668213 237.024994,230.602875 240.772263,224.950974 
	C248.040359,213.988770 255.688858,203.279541 263.097809,192.409668 
	C266.836517,186.924515 270.256622,181.219299 274.070496,175.788971 
	C279.429504,168.158676 287.210724,165.532303 293.763428,172.269821 
	C297.768951,176.388367 298.027283,180.502930 294.087341,186.322617 
	C287.093658,196.652939 280.029633,206.935593 273.133606,218.020905 
	C289.206512,218.852371 305.140778,218.901138 321.075073,218.949921 
z"/>
<path fill="#0E1622" opacity="1.000000" stroke="none" 
	d="
M268.992920,150.911407 
	C267.280914,154.389664 265.769806,157.595795 263.816742,160.505249 
	C252.626816,177.174850 241.388535,193.812698 230.055450,210.385269 
	C220.336914,224.596863 210.400558,238.659561 200.694916,252.879822 
	C195.474701,260.528259 190.596268,268.409607 185.406311,276.079437 
	C184.651337,277.195129 183.069580,278.288727 181.779373,278.408020 
	C177.196259,278.831787 172.568390,279.047119 167.967468,278.934265 
	C162.040543,278.788879 160.054367,274.899414 163.444351,269.923920 
	C176.262497,251.110764 189.233994,232.402206 202.112396,213.630020 
	C216.951050,192.000473 231.739441,170.336472 246.592407,148.716797 
	C247.802353,146.955627 249.327484,145.408524 250.730652,143.783081 
	C253.575165,140.488022 256.671722,138.961288 261.242920,140.820068 
	C265.843170,142.690643 269.024567,145.170197 268.992920,150.911407 
z"/>
<path fill="#FBFCFE" opacity="1.000000" stroke="none" 
	d="
M267.416077,300.217194 
	C269.178619,298.739166 271.454102,297.670074 271.847076,296.122833 
	C273.022919,291.493439 276.336914,288.997681 281.159393,290.040375 
	C282.413605,290.311584 283.737640,291.147003 284.874084,290.925476 
	C290.355255,289.857086 294.183655,290.932251 294.810974,297.340790 
	C294.893372,298.182587 295.691437,299.554138 296.311859,299.646484 
	C300.472626,300.265686 304.675079,300.949646 308.864044,300.950012 
	C314.428436,300.950500 319.990021,300.161316 325.558411,300.076630 
	C328.620026,300.030060 330.178131,299.376312 330.090729,295.916382 
	C330.021454,293.174255 330.453278,289.567688 334.232086,290.282715 
	C335.790039,290.577484 337.079987,293.874695 337.893005,296.031952 
	C338.577362,297.847900 338.394379,299.990723 338.453644,300.579895 
	C345.235626,300.374847 351.013123,299.994720 356.757294,300.282043 
	C357.489624,300.318665 359.152435,304.489624 358.483337,305.625977 
	C356.315247,309.307983 357.088837,312.186768 358.988464,315.546997 
	C361.300476,319.636749 359.775085,321.964569 355.146057,321.981750 
	C347.648041,322.009613 340.146057,322.120789 332.654388,321.901093 
	C330.659943,321.842621 328.697083,320.707397 326.719696,320.066528 
	C327.303284,319.697479 327.886871,319.328430 328.470428,318.959381 
	C328.188416,315.384094 328.498230,311.583954 327.275452,308.366150 
	C326.892548,307.358459 321.381104,306.753845 319.948578,307.982849 
	C315.782990,311.556671 319.301544,315.574677 320.552094,319.551147 
	C317.204346,323.284119 311.927673,323.169617 307.100525,318.877350 
	C301.943054,321.830841 296.767609,323.467438 290.253876,322.298096 
	C284.113251,321.195740 277.513611,322.893860 271.121948,322.821747 
	C268.704620,322.794495 266.139923,321.556976 263.938934,320.336426 
	C261.350006,318.900787 259.200378,318.739105 256.845062,320.628235 
	C252.417801,324.179169 247.184357,324.105133 243.593002,320.519684 
	C240.961533,317.892548 239.304291,313.127411 239.303299,309.314667 
	C239.301971,304.270325 242.953506,300.475830 248.178314,299.506195 
	C250.338913,299.105255 253.543976,299.387146 254.942215,300.737488 
	C259.393494,305.036316 263.122986,303.694122 267.416077,300.217194 
z"/>
<path fill="#FFB9BD" opacity="1.000000" stroke="none" 
	d="
M228.040070,278.312683 
	C269.003357,277.881378 310.139038,277.872742 351.765381,277.877441 
	C351.101379,278.262970 349.947235,278.958710 348.792053,278.960449 
	C309.083069,279.020691 269.373993,279.016205 229.664948,279.007385 
	C229.180771,279.007263 228.696640,278.829956 228.040070,278.312683 
z"/>
<path fill="#FF908E" opacity="1.000000" stroke="none" 
	d="
M325.682312,255.966766 
	C326.515106,256.345123 326.959717,256.940857 327.404327,257.536560 
	C326.611542,257.694214 325.818573,257.990540 325.026001,257.989441 
	C295.837158,257.948792 266.648346,257.880615 237.139923,257.519287 
	C264.574097,257.147949 292.327911,257.087952 320.081451,256.964874 
	C321.820099,256.957184 323.556610,256.455811 325.682312,255.966766 
z"/>
<path fill="#FFB9BD" opacity="1.000000" stroke="none" 
	d="
M246.940887,240.270660 
	C267.763672,239.897369 288.812561,239.916534 309.861328,239.982269 
	C311.822815,239.988388 313.783386,240.289490 315.901184,240.878357 
	C294.741241,241.201248 273.424438,241.106003 252.107788,240.984741 
	C250.460297,240.975372 248.813858,240.783112 246.940887,240.270660 
z"/>
<path fill="#FBFCFE" opacity="1.000000" stroke="none" 
	d="
M320.857880,218.568665 
	C305.140778,218.901138 289.206512,218.852371 273.130646,218.378021 
	C288.872955,218.030762 304.756805,218.109085 320.857880,218.568665 
z"/>
</svg>